<svg width="651" height="618" viewBox="0 0 651 618" fill="none" xmlns="http://www.w3.org/2000/svg">
<path d="M446.317 422.03L461.5 406.934L426.243 371.477L411.063 386.574L446.317 422.03ZM512.487 400.61L576.17 435.23L600.05 391.304L536.367 356.684L512.487 400.61ZM588.43 504.037L541.077 551.12L576.33 586.577L623.683 539.494L588.43 504.037ZM512.223 566.28C463.893 570.784 338.853 566.77 203.473 432.157L168.218 467.614C315.953 614.51 456.563 621.684 516.863 616.064L512.223 566.28ZM203.473 432.157C74.4267 303.844 53.0503 195.922 50.3893 149.102L0.470018 151.939C3.81868 210.867 30.2877 330.467 168.218 467.614L203.473 432.157ZM249.317 226.147L258.877 216.641L223.623 181.185L214.063 190.691L249.317 226.147ZM266.487 95.4675L224.455 39.3208L184.429 69.2855L226.46 125.432L266.487 95.4675ZM83.0877 27.1002L30.7677 79.1232L66.0224 114.579L118.342 62.5562L83.0877 27.1002ZM231.69 208.419C214.063 190.691 214.039 190.715 214.015 190.739C214.007 190.747 213.983 190.771 213.967 190.788C213.934 190.821 213.901 190.854 213.867 190.888C213.799 190.957 213.729 191.029 213.657 191.104C213.513 191.253 213.36 191.415 213.2 191.59C212.878 191.939 212.525 192.338 212.147 192.789C211.391 193.691 210.535 194.801 209.635 196.13C207.831 198.793 205.865 202.314 204.196 206.742C200.792 215.777 198.967 227.687 201.255 242.435C205.73 271.278 225.593 309.377 276.477 359.97L311.73 324.514C264.113 277.167 252.77 248.353 250.663 234.77C249.66 228.306 250.7 225.124 250.987 224.371C251.16 223.905 251.243 223.857 251.03 224.175C250.923 224.331 250.747 224.575 250.47 224.903C250.333 225.067 250.17 225.253 249.98 225.461C249.883 225.564 249.783 225.673 249.67 225.788C249.617 225.845 249.56 225.903 249.5 225.963C249.47 225.993 249.44 226.024 249.41 226.054C249.397 226.07 249.373 226.093 249.363 226.101C249.34 226.124 249.317 226.147 231.69 208.419ZM276.477 359.97C327.377 410.58 365.653 430.277 394.543 434.71C409.307 436.974 421.21 435.167 430.24 431.804C434.667 430.154 438.193 428.21 440.86 426.424C442.193 425.53 443.307 424.68 444.21 423.93C444.663 423.557 445.063 423.207 445.413 422.887C445.59 422.727 445.753 422.577 445.903 422.434C445.98 422.36 446.05 422.29 446.12 422.224C446.153 422.19 446.187 422.157 446.22 422.124C446.237 422.107 446.263 422.084 446.27 422.077C446.293 422.054 446.317 422.03 428.69 404.3C411.063 386.574 411.087 386.55 411.11 386.527C411.117 386.52 411.14 386.497 411.157 386.48C411.187 386.45 411.217 386.42 411.247 386.39C411.31 386.334 411.367 386.277 411.423 386.22C411.54 386.11 411.65 386.01 411.753 385.914C411.96 385.727 412.147 385.564 412.313 385.43C412.64 385.157 412.883 384.984 413.033 384.88C413.343 384.674 413.28 384.767 412.787 384.95C411.97 385.254 408.7 386.297 402.127 385.287C388.35 383.177 359.333 371.844 311.73 324.514L276.477 359.97ZM224.455 39.3208C190.478 -6.06551 123.665 -13.2472 83.0877 27.1002L118.342 62.5562C136.065 44.9338 167.541 46.7275 184.429 69.2855L224.455 39.3208ZM50.3893 149.102C49.7337 137.565 55.025 125.514 66.0224 114.579L30.7677 79.1232C12.857 96.9322 -1.22365 122.142 0.470018 151.939L50.3893 149.102ZM541.077 551.12C531.917 560.23 522.097 565.36 512.223 566.28L516.863 616.064C541.35 613.781 561.413 601.41 576.33 586.577L541.077 551.12ZM258.877 216.641C291.693 184.01 294.133 132.397 266.487 95.4675L226.46 125.432C239.91 143.398 237.91 166.98 223.623 181.185L258.877 216.641ZM576.17 435.23C603.43 450.05 607.677 484.897 588.43 504.037L623.683 539.494C668.36 495.071 654.583 420.947 600.05 391.304L576.17 435.23ZM461.5 406.934C474.3 394.207 494.903 391.054 512.487 400.61L536.367 356.684C500.247 337.047 455.42 342.47 426.243 371.477L461.5 406.934Z" fill="#0068D0"/>
</svg>
