<svg width="526" height="395" viewBox="0 0 526 395" fill="none" xmlns="http://www.w3.org/2000/svg">
<path d="M95.44 374.48C95.44 375.893 95.1067 377.227 94.44 378.48C93.7734 379.733 92.7067 380.76 91.24 381.56C89.7734 382.333 87.8934 382.72 85.6 382.72H80.56V394H76V366.2H85.6C87.7334 366.2 89.5334 366.573 91 367.32C92.4934 368.04 93.6 369.027 94.32 370.28C95.0667 371.533 95.44 372.933 95.44 374.48ZM85.6 379C87.3334 379 88.6267 378.613 89.48 377.84C90.3334 377.04 90.76 375.92 90.76 374.48C90.76 371.44 89.04 369.92 85.6 369.92H80.56V379H85.6Z" fill="#636777"/>
<path d="M108.349 390.32H117.749V394H103.789V366.2H108.349V390.32Z" fill="#636777"/>
<path d="M130.083 366.2V383.92C130.083 386.027 130.629 387.613 131.723 388.68C132.843 389.747 134.389 390.28 136.363 390.28C138.363 390.28 139.909 389.747 141.003 388.68C142.123 387.613 142.683 386.027 142.683 383.92V366.2H147.243V383.84C147.243 386.107 146.749 388.027 145.763 389.6C144.776 391.173 143.456 392.347 141.803 393.12C140.149 393.893 138.323 394.28 136.323 394.28C134.323 394.28 132.496 393.893 130.843 393.12C129.216 392.347 127.923 391.173 126.963 389.6C126.003 388.027 125.523 386.107 125.523 383.84V366.2H130.083Z" fill="#636777"/>
<path d="M186.46 366.2V394H181.9V374.96L173.42 394H170.26L161.74 374.96V394H157.18V366.2H162.1L171.86 388L181.58 366.2H186.46Z" fill="#636777"/>
<path d="M211.333 379.72C212.826 379.987 214.093 380.773 215.133 382.08C216.173 383.387 216.693 384.867 216.693 386.52C216.693 387.933 216.32 389.213 215.573 390.36C214.853 391.48 213.8 392.373 212.413 393.04C211.026 393.68 209.413 394 207.573 394H196.453V366.2H207.053C208.946 366.2 210.573 366.52 211.933 367.16C213.293 367.8 214.32 368.667 215.013 369.76C215.706 370.827 216.053 372.027 216.053 373.36C216.053 374.96 215.626 376.293 214.773 377.36C213.92 378.427 212.773 379.213 211.333 379.72ZM201.013 377.88H206.653C208.146 377.88 209.306 377.547 210.133 376.88C210.986 376.187 211.413 375.2 211.413 373.92C211.413 372.667 210.986 371.693 210.133 371C209.306 370.28 208.146 369.92 206.653 369.92H201.013V377.88ZM207.173 390.28C208.72 390.28 209.933 389.907 210.813 389.16C211.693 388.413 212.133 387.373 212.133 386.04C212.133 384.68 211.666 383.6 210.733 382.8C209.8 382 208.56 381.6 207.013 381.6H201.013V390.28H207.173Z" fill="#636777"/>
<path d="M230.208 366.2V394H225.648V366.2H230.208Z" fill="#636777"/>
<path d="M263.035 394H258.475L244.755 373.24V394H240.195V366.16H244.755L258.475 386.88V366.16H263.035V394Z" fill="#636777"/>
<path d="M293.143 374.2C292.423 372.813 291.423 371.773 290.143 371.08C288.863 370.36 287.383 370 285.703 370C283.863 370 282.223 370.413 280.783 371.24C279.343 372.067 278.21 373.24 277.383 374.76C276.583 376.28 276.183 378.04 276.183 380.04C276.183 382.04 276.583 383.813 277.383 385.36C278.21 386.88 279.343 388.053 280.783 388.88C282.223 389.707 283.863 390.12 285.703 390.12C288.183 390.12 290.197 389.427 291.743 388.04C293.29 386.653 294.237 384.773 294.583 382.4H284.143V378.76H299.463V382.32C299.17 384.48 298.397 386.467 297.143 388.28C295.917 390.093 294.303 391.547 292.303 392.64C290.33 393.707 288.13 394.24 285.703 394.24C283.09 394.24 280.703 393.64 278.543 392.44C276.383 391.213 274.663 389.52 273.383 387.36C272.13 385.2 271.503 382.76 271.503 380.04C271.503 377.32 272.13 374.88 273.383 372.72C274.663 370.56 276.383 368.88 278.543 367.68C280.73 366.453 283.117 365.84 285.703 365.84C288.663 365.84 291.29 366.573 293.583 368.04C295.903 369.48 297.583 371.533 298.623 374.2H293.143Z" fill="#636777"/>
<path d="M343.832 394L340.392 390.56C339.058 391.893 337.605 392.893 336.032 393.56C334.458 394.2 332.698 394.52 330.752 394.52C328.778 394.52 327.032 394.173 325.512 393.48C323.992 392.787 322.818 391.8 321.992 390.52C321.165 389.213 320.752 387.707 320.752 386C320.752 384.08 321.298 382.373 322.392 380.88C323.485 379.36 325.112 378.16 327.272 377.28C326.498 376.347 325.952 375.48 325.632 374.68C325.312 373.853 325.152 372.947 325.152 371.96C325.152 370.733 325.458 369.64 326.072 368.68C326.712 367.72 327.618 366.96 328.792 366.4C329.965 365.84 331.325 365.56 332.872 365.56C334.445 365.56 335.778 365.867 336.872 366.48C337.992 367.067 338.818 367.88 339.352 368.92C339.912 369.96 340.138 371.12 340.032 372.4H335.472C335.498 371.413 335.258 370.653 334.752 370.12C334.245 369.56 333.552 369.28 332.672 369.28C331.792 369.28 331.072 369.547 330.512 370.08C329.978 370.587 329.712 371.213 329.712 371.96C329.712 372.68 329.912 373.4 330.312 374.12C330.738 374.813 331.472 375.72 332.512 376.84L339.872 384.16L342.712 379.48H347.632L344.032 385.64L343.032 387.28L349.792 394H343.832ZM330.752 390.64C333.258 390.64 335.472 389.613 337.392 387.56L330.032 380.16C326.885 381.413 325.312 383.307 325.312 385.84C325.312 387.2 325.818 388.347 326.832 389.28C327.845 390.187 329.152 390.64 330.752 390.64Z" fill="#636777"/>
<path d="M391.292 374.2C390.572 372.813 389.572 371.773 388.292 371.08C387.012 370.36 385.532 370 383.852 370C382.012 370 380.372 370.413 378.932 371.24C377.492 372.067 376.359 373.24 375.532 374.76C374.732 376.28 374.332 378.04 374.332 380.04C374.332 382.04 374.732 383.813 375.532 385.36C376.359 386.88 377.492 388.053 378.932 388.88C380.372 389.707 382.012 390.12 383.852 390.12C386.332 390.12 388.345 389.427 389.892 388.04C391.439 386.653 392.385 384.773 392.732 382.4H382.292V378.76H397.612V382.32C397.319 384.48 396.545 386.467 395.292 388.28C394.065 390.093 392.452 391.547 390.452 392.64C388.479 393.707 386.279 394.24 383.852 394.24C381.239 394.24 378.852 393.64 376.692 392.44C374.532 391.213 372.812 389.52 371.532 387.36C370.279 385.2 369.652 382.76 369.652 380.04C369.652 377.32 370.279 374.88 371.532 372.72C372.812 370.56 374.532 368.88 376.692 367.68C378.879 366.453 381.265 365.84 383.852 365.84C386.812 365.84 389.439 366.573 391.732 368.04C394.052 369.48 395.732 371.533 396.772 374.2H391.292Z" fill="#636777"/>
<path d="M422.869 388.32H411.229L409.229 394H404.469L414.429 366.16H419.709L429.669 394H424.869L422.869 388.32ZM421.589 384.6L417.069 371.68L412.509 384.6H421.589Z" fill="#636777"/>
<path d="M447.16 394.28C445.293 394.28 443.613 393.96 442.12 393.32C440.627 392.653 439.453 391.72 438.6 390.52C437.747 389.32 437.32 387.92 437.32 386.32H442.2C442.307 387.52 442.773 388.507 443.6 389.28C444.453 390.053 445.64 390.44 447.16 390.44C448.733 390.44 449.96 390.067 450.84 389.32C451.72 388.547 452.16 387.56 452.16 386.36C452.16 385.427 451.88 384.667 451.32 384.08C450.787 383.493 450.107 383.04 449.28 382.72C448.48 382.4 447.36 382.053 445.92 381.68C444.107 381.2 442.627 380.72 441.48 380.24C440.36 379.733 439.4 378.96 438.6 377.92C437.8 376.88 437.4 375.493 437.4 373.76C437.4 372.16 437.8 370.76 438.6 369.56C439.4 368.36 440.52 367.44 441.96 366.8C443.4 366.16 445.067 365.84 446.96 365.84C449.653 365.84 451.853 366.52 453.56 367.88C455.293 369.213 456.253 371.053 456.44 373.4H451.4C451.32 372.387 450.84 371.52 449.96 370.8C449.08 370.08 447.92 369.72 446.48 369.72C445.173 369.72 444.107 370.053 443.28 370.72C442.453 371.387 442.04 372.347 442.04 373.6C442.04 374.453 442.293 375.16 442.8 375.72C443.333 376.253 444 376.68 444.8 377C445.6 377.32 446.693 377.667 448.08 378.04C449.92 378.547 451.413 379.053 452.56 379.56C453.733 380.067 454.72 380.853 455.52 381.92C456.347 382.96 456.76 384.36 456.76 386.12C456.76 387.533 456.373 388.867 455.6 390.12C454.853 391.373 453.747 392.387 452.28 393.16C450.84 393.907 449.133 394.28 447.16 394.28Z" fill="#636777"/>
<path d="M40.5 267.2C44.4334 267.933 47.6667 269.9 50.2 273.1C52.7334 276.3 54 279.967 54 284.1C54 287.833 53.0667 291.133 51.2 294C49.4 296.8 46.7667 299 43.3 300.6C39.8334 302.2 35.7334 303 31 303H0.900024V233.2H29.7C34.4334 233.2 38.5 233.967 41.9 235.5C45.3667 237.033 47.9667 239.167 49.7 241.9C51.5 244.633 52.4 247.733 52.4 251.2C52.4 255.267 51.3 258.667 49.1 261.4C46.9667 264.133 44.1 266.067 40.5 267.2ZM14.9 262H27.7C31.0334 262 33.6 261.267 35.4 259.8C37.2 258.267 38.1 256.1 38.1 253.3C38.1 250.5 37.2 248.333 35.4 246.8C33.6 245.267 31.0334 244.5 27.7 244.5H14.9V262ZM29 291.6C32.4 291.6 35.0334 290.8 36.9 289.2C38.8334 287.6 39.8 285.333 39.8 282.4C39.8 279.4 38.8 277.067 36.8 275.4C34.8 273.667 32.1 272.8 28.7 272.8H14.9V291.6H29Z" fill="#1C1E27"/>
<path d="M84.1578 229V303H70.1578V229H84.1578Z" fill="#1C1E27"/>
<path d="M155.29 247.6V303H141.19V296C139.39 298.4 137.023 300.3 134.09 301.7C131.223 303.033 128.09 303.7 124.69 303.7C120.357 303.7 116.523 302.8 113.19 301C109.857 299.133 107.223 296.433 105.29 292.9C103.423 289.3 102.49 285.033 102.49 280.1V247.6H116.49V278.1C116.49 282.5 117.59 285.9 119.79 288.3C121.99 290.633 124.99 291.8 128.79 291.8C132.657 291.8 135.69 290.633 137.89 288.3C140.09 285.9 141.19 282.5 141.19 278.1V247.6H155.29Z" fill="#1C1E27"/>
<path d="M225.603 274.1C225.603 276.1 225.47 277.9 225.203 279.5H184.703C185.036 283.5 186.436 286.633 188.903 288.9C191.37 291.167 194.403 292.3 198.003 292.3C203.203 292.3 206.903 290.067 209.103 285.6H224.203C222.603 290.933 219.536 295.333 215.003 298.8C210.47 302.2 204.903 303.9 198.303 303.9C192.97 303.9 188.17 302.733 183.903 300.4C179.703 298 176.403 294.633 174.003 290.3C171.67 285.967 170.503 280.967 170.503 275.3C170.503 269.567 171.67 264.533 174.003 260.2C176.336 255.867 179.603 252.533 183.803 250.2C188.003 247.867 192.836 246.7 198.303 246.7C203.57 246.7 208.27 247.833 212.403 250.1C216.603 252.367 219.836 255.6 222.103 259.8C224.436 263.933 225.603 268.7 225.603 274.1ZM211.103 270.1C211.036 266.5 209.736 263.633 207.203 261.5C204.67 259.3 201.57 258.2 197.903 258.2C194.436 258.2 191.503 259.267 189.103 261.4C186.77 263.467 185.336 266.367 184.803 270.1H211.103Z" fill="#1C1E27"/>
<path d="M320.55 254.8C320.55 258.533 319.65 262.033 317.85 265.3C316.117 268.567 313.35 271.2 309.55 273.2C305.817 275.2 301.083 276.2 295.35 276.2H283.65V303H269.65V233.2H295.35C300.75 233.2 305.35 234.133 309.15 236C312.95 237.867 315.783 240.433 317.65 243.7C319.583 246.967 320.55 250.667 320.55 254.8ZM294.75 264.9C298.617 264.9 301.483 264.033 303.35 262.3C305.217 260.5 306.15 258 306.15 254.8C306.15 248 302.35 244.6 294.75 244.6H283.65V264.9H294.75Z" fill="#1C1E27"/>
<path d="M386.99 274.1C386.99 276.1 386.857 277.9 386.59 279.5H346.09C346.423 283.5 347.823 286.633 350.29 288.9C352.757 291.167 355.79 292.3 359.39 292.3C364.59 292.3 368.29 290.067 370.49 285.6H385.59C383.99 290.933 380.923 295.333 376.39 298.8C371.857 302.2 366.29 303.9 359.69 303.9C354.357 303.9 349.557 302.733 345.29 300.4C341.09 298 337.79 294.633 335.39 290.3C333.057 285.967 331.89 280.967 331.89 275.3C331.89 269.567 333.057 264.533 335.39 260.2C337.723 255.867 340.99 252.533 345.19 250.2C349.39 247.867 354.223 246.7 359.69 246.7C364.957 246.7 369.657 247.833 373.79 250.1C377.99 252.367 381.223 255.6 383.49 259.8C385.823 263.933 386.99 268.7 386.99 274.1ZM372.49 270.1C372.423 266.5 371.123 263.633 368.59 261.5C366.057 259.3 362.957 258.2 359.29 258.2C355.823 258.2 352.89 259.267 350.49 261.4C348.157 263.467 346.723 266.367 346.19 270.1H372.49Z" fill="#1C1E27"/>
<path d="M398.609 275.1C398.609 269.5 399.709 264.533 401.909 260.2C404.175 255.867 407.209 252.533 411.009 250.2C414.875 247.867 419.175 246.7 423.909 246.7C428.042 246.7 431.642 247.533 434.709 249.2C437.842 250.867 440.342 252.967 442.209 255.5V247.6H456.309V303H442.209V294.9C440.409 297.5 437.909 299.667 434.709 301.4C431.575 303.067 427.942 303.9 423.809 303.9C419.142 303.9 414.875 302.7 411.009 300.3C407.209 297.9 404.175 294.533 401.909 290.2C399.709 285.8 398.609 280.767 398.609 275.1ZM442.209 275.3C442.209 271.9 441.542 269 440.209 266.6C438.875 264.133 437.075 262.267 434.809 261C432.542 259.667 430.109 259 427.509 259C424.909 259 422.509 259.633 420.309 260.9C418.109 262.167 416.309 264.033 414.909 266.5C413.575 268.9 412.909 271.767 412.909 275.1C412.909 278.433 413.575 281.367 414.909 283.9C416.309 286.367 418.109 288.267 420.309 289.6C422.575 290.933 424.975 291.6 427.509 291.6C430.109 291.6 432.542 290.967 434.809 289.7C437.075 288.367 438.875 286.5 440.209 284.1C441.542 281.633 442.209 278.7 442.209 275.3Z" fill="#1C1E27"/>
<path d="M507.782 303L488.982 279.4V303H474.982V229H488.982V271.1L507.582 247.6H525.782L501.382 275.4L525.982 303H507.782Z" fill="#1C1E27"/>
<path fill-rule="evenodd" clip-rule="evenodd" d="M297.586 5.69064L239.959 63.8206L251.134 75.1122L303.272 22.583L436.658 157H459L308.858 5.69064L303.272 0L297.586 5.69064ZM234.474 91.9035L254.758 112.227L265.933 123.518L277.104 112.227L299.45 89.741L366.189 157H388.536L305.036 72.8561L299.45 67.158L293.767 72.8561L265.933 100.935L245.742 80.612L234.474 69.3168L204.387 38.9778L198.798 33.2834L193.114 38.9778L76 157H98.3454L198.798 55.8702L234.474 91.9035Z" fill="#2B5FAE"/>
</svg>
