<svg width="20" height="20" viewBox="0 0 20 20" fill="none" xmlns="http://www.w3.org/2000/svg">
<path d="M0 20L1.72 14.8403C0.847241 13.3724 0.344828 11.6593 0.344828 9.82759C0.344828 4.4 4.74483 0 10.1724 0C15.6 0 20 4.4 20 9.82759C20 15.2552 15.6 19.6552 10.1724 19.6552C8.52103 19.6552 6.96586 19.2459 5.6 18.5266L0 20Z" fill="#2B5FAE"/>
<path d="M16.4424 13.0983C15.9886 12.2407 14.3152 11.26 14.3152 11.26C13.9366 11.0441 13.4797 11.02 13.2638 11.4048C13.2638 11.4048 12.72 12.0569 12.5817 12.1507C11.95 12.5786 11.3648 12.5621 10.7741 11.9714L8.02862 9.22586C7.43793 8.63517 7.42138 8.05 7.84931 7.41828C7.9431 7.28 8.59517 6.73621 8.59517 6.73621C8.98 6.52 8.95586 6.06345 8.74 5.68483C8.74 5.68483 7.75931 4.01138 6.90172 3.55759C6.5369 3.36448 6.08897 3.43207 5.79724 3.72379L5.19103 4.33C3.26793 6.2531 4.21483 8.42414 6.13793 10.3472L9.6531 13.8624C11.5762 15.7855 13.7472 16.7324 15.6703 14.8093L16.2766 14.2031C16.5683 13.9107 16.6355 13.4628 16.4424 13.0983Z" fill="white"/>
</svg>
